<svg xmlns="http://www.w3.org/2000/svg" viewBox="0 0 48 48" role="img" aria-label="macOS">
  <rect width="48" height="48" rx="10" fill="#555"/>
  <path fill="#fff" d="M32.2 25.4c-.1-3.1 2.5-4.6 2.6-4.7-1.4-2.1-3.6-2.4-4.4-2.4-1.9-.2-3.7 1.1-4.7 1.1-.9 0-2.4-1.1-4-1.1-2.1 0-4 1.2-5.1 3.1-2.2 3.8-.6 9.4 1.5 12.5 1 1.5 2.2 3.1 3.8 3.1 1.5-.1 2.1-1 3.9-1s2.3 1 4 1 2.7-1.5 3.7-2.9c1.2-1.7 1.6-3.4 1.6-3.5-.1 0-3.1-1.2-3.1-4.6zM28.5 14.8c.8-1 1.4-2.4 1.2-3.8-1.2.1-2.6.8-3.4 1.8-.8.9-1.4 2.3-1.2 3.7 1.3.1 2.6-.7 3.4-1.7z"/>
</svg>
