<svg xmlns="http://www.w3.org/2000/svg" viewBox="0 0 48 48" role="img" aria-label="Linux">
  <circle cx="24" cy="24" r="23" fill="#1a1a1a"/>
  <path fill="#fff" d="M14 30c1.2 2.4 3.4 4 6 4 1.2 0 2.3-.3 3.3-.9.5 1.1 1.6 1.9 2.9 1.9 1.8 0 3.2-1.5 3.2-3.3 0-.3 0-.6-.1-.9 2.1-1.2 3.5-3.5 3.5-6.1 0-3.9-3.2-7.1-7.1-7.1-1.4 0-2.7.4-3.8 1.1C20.8 15.2 18.5 14 16 14c-4.4 0-8 3.6-8 8 0 2.8 1.4 5.2 3.6 6.6-.1.4-.1.8-.1 1.2 0 2.5 2 4.5 4.5 4.5 1.6 0 3-.8 3.8-2.1z"/>
  <circle cx="18" cy="22" r="1.4" fill="#1a1a1a"/>
  <circle cx="26" cy="22" r="1.4" fill="#1a1a1a"/>
</svg>
